<svg xmlns="http://www.w3.org/2000/svg" xmlns:xlink="http://www.w3.org/1999/xlink" width="0" height="0" style="display:none;"><symbol viewBox="0 0 24 24" id="arrow-up-s-line"><path d="M11.9999 10.8284L7.0502 15.7782L5.63599 14.364L11.9999 8L18.3639 14.364L16.9497 15.7782L11.9999 10.8284Z" fill="currentColor"></path></symbol><symbol viewBox="0 0 24 24" id="arrow-right-s-line"><path d="M13.1717 12.0007L8.22192 7.05093L9.63614 5.63672L16.0001 12.0007L9.63614 18.3646L8.22192 16.9504L13.1717 12.0007Z" fill="currentColor"></path></symbol><symbol viewBox="0 0 24 24" id="arrow-down-s-line"><path d="M11.9999 13.1714L16.9497 8.22168L18.3639 9.63589L11.9999 15.9999L5.63599 9.63589L7.0502 8.22168L11.9999 13.1714Z" fill="currentColor"></path></symbol><symbol viewBox="0 0 24 24" id="arrow-left-s-line"><path d="M10.8284 12.0007L15.7782 16.9504L14.364 18.3646L8 12.0007L14.364 5.63672L15.7782 7.05093L10.8284 12.0007Z" fill="currentColor"></path></symbol><symbol viewBox="0 0 24 24" id="sort-asc"><path d="M19 3L23 8H20V20H18V8H15L19 3ZM14 18V20H3V18H14ZM14 11V13H3V11H14ZM12 4V6H3V4H12Z" fill="currentColor"></path></symbol><symbol viewBox="0 0 24 24" id="sort-desc"><path d="M20 4V16H23L19 21L15 16H18V4H20ZM12 18V20H3V18H12ZM14 11V13H3V11H14ZM14 4V6H3V4H14Z" fill="currentColor"></path></symbol><symbol viewBox="0 0 24 24" id="filter-line"><path d="M21 4V6H20L15 13.5V22H9V13.5L4 6H3V4H21ZM6.4037 6L11 12.8944V20H13V12.8944L17.5963 6H6.4037Z" fill="currentColor"></path></symbol><symbol viewBox="0 0 24 24" id="filter-fill"><path d="M21 4V6H20L14 15V22H10V15L4 6H3V4H21Z" fill="currentColor"></path></symbol><symbol viewBox="0 0 24 24" id="filter-off-line"><path d="M6.92893 0.514648L21.0711 14.6568L19.6569 16.071L15.834 12.2486L15 13.4999V21.9999H9V13.4999L4 5.99993H3V3.99993L7.585 3.99965L5.51472 1.92886L6.92893 0.514648ZM9.585 5.99965L6.4037 5.99993L11 12.8944V19.9999H13V12.8944L14.392 10.8066L9.585 5.99965ZM21 3.99993V5.99993H20L18.085 8.87193L16.643 7.42893L17.5963 5.99993H15.213L13.213 3.99993H21Z" fill="currentColor"></path></symbol><symbol viewBox="0 0 24 24" id="filter-off-fill"><path d="M6.92893 0.514648L21.0711 14.6568L19.6569 16.071L15.834 12.2486L14 14.9999V21.9999H10V14.9999L4 5.99993H3V3.99993L7.585 3.99965L5.51472 1.92886L6.92893 0.514648ZM21 3.99993V5.99993H20L18.085 8.87193L13.213 3.99993H21Z" fill="currentColor"></path></symbol><symbol viewBox="0 0 24 24" id="search-line"><path d="M18.031 16.6168L22.3137 20.8995L20.8995 22.3137L16.6168 18.031C15.0769 19.263 13.124 20 11 20C6.032 20 2 15.968 2 11C2 6.032 6.032 2 11 2C15.968 2 20 6.032 20 11C20 13.124 19.263 15.0769 18.031 16.6168ZM16.0247 15.8748C17.2475 14.6146 18 12.8956 18 11C18 7.1325 14.8675 4 11 4C7.1325 4 4 7.1325 4 11C4 14.8675 7.1325 18 11 18C12.8956 18 14.6146 17.2475 15.8748 16.0247L16.0247 15.8748Z" fill="currentColor"></path></symbol><symbol viewBox="0 0 24 24" id="add-fill"><path d="M11 11V5H13V11H19V13H13V19H11V13H5V11H11Z" fill="currentColor"></path></symbol><symbol viewBox="0 0 24 24" id="pencil-fill"><path d="M12.8995 6.85453L17.1421 11.0972L7.24264 20.9967H3V16.754L12.8995 6.85453ZM14.3137 5.44032L16.435 3.319C16.8256 2.92848 17.4587 2.92848 17.8492 3.319L20.6777 6.14743C21.0682 6.53795 21.0682 7.17112 20.6777 7.56164L18.5563 9.68296L14.3137 5.44032Z" fill="currentColor"></path></symbol><symbol viewBox="0 0 24 24" id="pencil-line"><path d="M15.7279 9.57627L14.3137 8.16206L5 17.4758V18.89H6.41421L15.7279 9.57627ZM17.1421 8.16206L18.5563 6.74785L17.1421 5.33363L15.7279 6.74785L17.1421 8.16206ZM7.24264 20.89H3V16.6473L16.435 3.21231C16.8256 2.82179 17.4587 2.82179 17.8492 3.21231L20.6777 6.04074C21.0682 6.43126 21.0682 7.06443 20.6777 7.45495L7.24264 20.89Z" fill="currentColor"></path></symbol><symbol viewBox="0 0 24 24" id="delete-bin-6-line"><path d="M7 4V2H17V4H22V6H20V21C20 21.5523 19.5523 22 19 22H5C4.44772 22 4 21.5523 4 21V6H2V4H7ZM6 6V20H18V6H6ZM9 9H11V17H9V9ZM13 9H15V17H13V9Z" fill="currentColor"></path></symbol><symbol viewBox="0 0 24 24" id="delete-bin-6-fill"><path d="M17 4H22V6H20V21C20 21.5523 19.5523 22 19 22H5C4.44772 22 4 21.5523 4 21V6H2V4H7V2H17V4ZM9 9V17H11V9H9ZM13 9V17H15V9H13Z" fill="currentColor"></path></symbol><symbol viewBox="0 0 24 24" id="close-line"><path d="M11.9997 10.5865L16.9495 5.63672L18.3637 7.05093L13.4139 12.0007L18.3637 16.9504L16.9495 18.3646L11.9997 13.4149L7.04996 18.3646L5.63574 16.9504L10.5855 12.0007L5.63574 7.05093L7.04996 5.63672L11.9997 10.5865Z" fill="currentColor"></path></symbol><symbol viewBox="0 0 24 24" id="save-line"><path d="M7 19V13H17V19H19V7.82843L16.1716 5H5V19H7ZM4 3H17L21 7V20C21 20.5523 20.5523 21 20 21H4C3.44772 21 3 20.5523 3 20V4C3 3.44772 3.44772 3 4 3ZM9 15V19H15V15H9Z" fill="currentColor"></path></symbol><symbol viewBox="0 0 24 24" id="save-fill"><path d="M18 21V13H6V21H4C3.44772 21 3 20.5523 3 20V4C3 3.44772 3.44772 3 4 3H17L21 7V20C21 20.5523 20.5523 21 20 21H18ZM16 21H8V15H16V21Z" fill="currentColor"></path></symbol><symbol viewBox="0 0 24 24" id="arrow-go-back-line"><path d="M5.82843 6.99955L8.36396 9.53509L6.94975 10.9493L2 5.99955L6.94975 1.0498L8.36396 2.46402L5.82843 4.99955H13C17.4183 4.99955 21 8.58127 21 12.9996C21 17.4178 17.4183 20.9996 13 20.9996H4V18.9996H13C16.3137 18.9996 19 16.3133 19 12.9996C19 9.68584 16.3137 6.99955 13 6.99955H5.82843Z" fill="currentColor"></path></symbol><symbol viewBox="0 0 24 24" id="corner-up-left-line"><path d="M19.0001 10.0001L19.0003 19L17.0003 19L17.0002 12.0001L6.82833 12L10.7781 15.9497L9.36384 17.364L2.99988 11L9.36384 4.63603L10.7781 6.05025L6.82828 10L19.0001 10.0001Z" fill="currentColor"></path></symbol><symbol viewBox="0 0 24 24" id="corner-up-right-line"><path d="M4.99989 10.0001L4.99976 19L6.99976 19L6.99986 12.0001L17.1717 12L13.222 15.9498L14.6362 17.364L21.0001 11L14.6362 4.63605L13.222 6.05026L17.1717 10L4.99989 10.0001Z" fill="currentColor"></path></symbol><symbol viewBox="0 0 24 24" id="arrow-go-forward-line"><path d="M18.1716 6.99955H11C7.68629 6.99955 5 9.68584 5 12.9996C5 16.3133 7.68629 18.9996 11 18.9996H20V20.9996H11C6.58172 20.9996 3 17.4178 3 12.9996C3 8.58127 6.58172 4.99955 11 4.99955H18.1716L15.636 2.46402L17.0503 1.0498L22 5.99955L17.0503 10.9493L15.636 9.53509L18.1716 6.99955Z" fill="currentColor"></path></symbol><symbol viewBox="0 0 24 24" id="home-4-line"><path d="M19 21H5C4.44772 21 4 20.5523 4 20V11L1 11L11.3273 1.6115C11.7087 1.26475 12.2913 1.26475 12.6727 1.6115L23 11L20 11V20C20 20.5523 19.5523 21 19 21ZM13 19H18V9.15745L12 3.7029L6 9.15745V19H11V13H13V19Z" fill="currentColor"></path></symbol><symbol viewBox="0 0 24 24" id="home-4-fill"><path d="M20 20C20 20.5523 19.5523 21 19 21H5C4.44772 21 4 20.5523 4 20V11L1 11L11.3273 1.6115C11.7087 1.26475 12.2913 1.26475 12.6727 1.6115L23 11L20 11V20ZM11 13V19H13V13H11Z" fill="currentColor"></path></symbol><symbol viewBox="0 0 24 24" id="links-line"><path d="M13.0607 8.11097L14.4749 9.52518C17.2086 12.2589 17.2086 16.691 14.4749 19.4247L14.1214 19.7782C11.3877 22.5119 6.95555 22.5119 4.22188 19.7782C1.48821 17.0446 1.48821 12.6124 4.22188 9.87874L5.6361 11.293C3.68348 13.2456 3.68348 16.4114 5.6361 18.364C7.58872 20.3166 10.7545 20.3166 12.7072 18.364L13.0607 18.0105C15.0133 16.0578 15.0133 12.892 13.0607 10.9394L11.6465 9.52518L13.0607 8.11097ZM19.7782 14.1214L18.364 12.7072C20.3166 10.7545 20.3166 7.58872 18.364 5.6361C16.4114 3.68348 13.2456 3.68348 11.293 5.6361L10.9394 5.98965C8.98678 7.94227 8.98678 11.1081 10.9394 13.0607L12.3536 14.4749L10.9394 15.8891L9.52518 14.4749C6.79151 11.7413 6.79151 7.30911 9.52518 4.57544L9.87874 4.22188C12.6124 1.48821 17.0446 1.48821 19.7782 4.22188C22.5119 6.95555 22.5119 11.3877 19.7782 14.1214Z" fill="currentColor"></path></symbol><symbol viewBox="0 0 24 24" id="reply-line"><path d="M11 20L1 12L11 4V9C16.5228 9 21 13.4772 21 19C21 19.2727 20.9891 19.5428 20.9677 19.81C19.5055 17.0364 16.6381 15.119 13.313 15.0053L13 15H10.9999L11 20ZM8.99986 13H10.9999L13.0341 13.0003L13.3814 13.0065C14.6657 13.0504 15.9053 13.3165 17.0568 13.7734C15.5898 12.0749 13.4204 11 11 11H9V8.16125L4.20156 12L8.99992 15.8387L8.99986 13Z" fill="currentColor"></path></symbol><symbol viewBox="0 0 24 24" id="reply-fill"><path d="M11 20L1 12L11 4V9C16.5228 9 21 13.4772 21 19C21 19.2729 20.9891 19.5433 20.9676 19.8107C19.4605 16.9502 16.458 15 13 15H11V20Z" fill="currentColor"></path></symbol><symbol viewBox="0 0 24 24" id="edit-box-line"><path d="M16.7574 2.99677L14.7574 4.99677H5V18.9968H19V9.23941L21 7.23941V19.9968C21 20.5491 20.5523 20.9968 20 20.9968H4C3.44772 20.9968 3 20.5491 3 19.9968V3.99677C3 3.44448 3.44772 2.99677 4 2.99677H16.7574ZM20.4853 2.09727L21.8995 3.51149L12.7071 12.7039L11.2954 12.7063L11.2929 11.2897L20.4853 2.09727Z" fill="currentColor"></path></symbol><symbol viewBox="0 0 24 24" id="edit-box-fill"><path d="M16.7574 2.99677L9.29145 10.4627L9.29886 14.7098L13.537 14.7024L21 7.23941V19.9968C21 20.5491 20.5523 20.9968 20 20.9968H4C3.44772 20.9968 3 20.5491 3 19.9968V3.99677C3 3.44448 3.44772 2.99677 4 2.99677H16.7574ZM20.4853 2.09727L21.8995 3.51149L12.7071 12.7039L11.2954 12.7063L11.2929 11.2897L20.4853 2.09727Z" fill="currentColor"></path></symbol><symbol viewBox="0 0 24 24" id="clipboard-line"><path d="M7 4V2H17V4H20.0066C20.5552 4 21 4.44495 21 4.9934V21.0066C21 21.5552 20.5551 22 20.0066 22H3.9934C3.44476 22 3 21.5551 3 21.0066V4.9934C3 4.44476 3.44495 4 3.9934 4H7ZM7 6H5V20H19V6H17V8H7V6ZM9 4V6H15V4H9Z" fill="currentColor"></path></symbol><symbol viewBox="0 0 24 24" id="clipboard-fill"><path d="M6 4V8H18V4H20.0066C20.5552 4 21 4.44495 21 4.9934V21.0066C21 21.5552 20.5551 22 20.0066 22H3.9934C3.44476 22 3 21.5551 3 21.0066V4.9934C3 4.44476 3.44495 4 3.9934 4H6ZM8 2H16V6H8V2Z" fill="currentColor"></path></symbol><symbol viewBox="0 0 24 24" id="image-line"><path d="M2.9918 21C2.44405 21 2 20.5551 2 20.0066V3.9934C2 3.44476 2.45531 3 2.9918 3H21.0082C21.556 3 22 3.44495 22 3.9934V20.0066C22 20.5552 21.5447 21 21.0082 21H2.9918ZM20 15V5H4V19L14 9L20 15ZM20 17.8284L14 11.8284L6.82843 19H20V17.8284ZM8 11C6.89543 11 6 10.1046 6 9C6 7.89543 6.89543 7 8 7C9.10457 7 10 7.89543 10 9C10 10.1046 9.10457 11 8 11Z" fill="currentColor"></path></symbol><symbol viewBox="0 0 24 24" id="image-fill"><path d="M20 5H4V19L13.2923 9.70649C13.6828 9.31595 14.3159 9.31591 14.7065 9.70641L20 15.0104V5ZM2 3.9934C2 3.44476 2.45531 3 2.9918 3H21.0082C21.556 3 22 3.44495 22 3.9934V20.0066C22 20.5552 21.5447 21 21.0082 21H2.9918C2.44405 21 2 20.5551 2 20.0066V3.9934ZM8 11C6.89543 11 6 10.1046 6 9C6 7.89543 6.89543 7 8 7C9.10457 7 10 7.89543 10 9C10 10.1046 9.10457 11 8 11Z" fill="currentColor"></path></symbol><symbol viewBox="0 0 24 24" id="image-add-line"><path d="M21 15V18H24V20H21V23H19V20H16V18H19V15H21ZM21.0082 3C21.556 3 22 3.44495 22 3.9934V13H20V5H4V18.999L14 9L17 12V14.829L14 11.8284L6.827 19H14V21H2.9918C2.44405 21 2 20.5551 2 20.0066V3.9934C2 3.44476 2.45531 3 2.9918 3H21.0082ZM8 7C9.10457 7 10 7.89543 10 9C10 10.1046 9.10457 11 8 11C6.89543 11 6 10.1046 6 9C6 7.89543 6.89543 7 8 7Z" fill="currentColor"></path></symbol><symbol viewBox="0 0 24 24" id="image-add-fill"><path d="M21 15V18H24V20H21V23H19V20H16V18H19V15H21ZM21.0082 3C21.556 3 22 3.44495 22 3.9934L22.0007 13.3417C21.3749 13.1204 20.7015 13 20 13V5H4L4.001 19L13.2929 9.70715C13.6528 9.34604 14.22 9.31823 14.6123 9.62322L14.7065 9.70772L18.2521 13.2586C15.791 14.0069 14 16.2943 14 19C14 19.7015 14.1204 20.3749 14.3417 21.0007L2.9918 21C2.44405 21 2 20.5551 2 20.0066V3.9934C2 3.44476 2.45531 3 2.9918 3H21.0082ZM8 7C9.10457 7 10 7.89543 10 9C10 10.1046 9.10457 11 8 11C6.89543 11 6 10.1046 6 9C6 7.89543 6.89543 7 8 7Z" fill="currentColor"></path></symbol><symbol viewBox="0 0 24 24" id="image-edit-line"><path d="M20 3C20.5523 3 21 3.44772 21 4V5.757L19 7.757V5H5V13.1L9 9.1005L13.328 13.429L11.9132 14.8422L9 11.9289L5 15.928V19H15.533L16.2414 19.0012L17.57 17.671L18.8995 19H19V16.242L21 14.242V20C21 20.5523 20.5523 21 20 21H4C3.45 21 3 20.55 3 20V4C3 3.44772 3.44772 3 4 3H20ZM21.7782 7.80761L23.1924 9.22183L15.4142 17L13.9979 16.9979L14 15.5858L21.7782 7.80761ZM15.5 7C16.3284 7 17 7.67157 17 8.5C17 9.32843 16.3284 10 15.5 10C14.6716 10 14 9.32843 14 8.5C14 7.67157 14.6716 7 15.5 7Z" fill="currentColor"></path></symbol><symbol viewBox="0 0 24 24" id="image-edit-fill"><path d="M20 3C20.5523 3 21 3.44772 21 4V5.757L19 7.757V5H5V13.1L9 9.1005L13.328 13.429L12.0012 14.7562L11.995 18.995L16.2414 19.0012L17.571 17.671L18.8995 19H19V16.242L21 14.242V20C21 20.5523 20.5523 21 20 21H4C3.44772 21 3 20.5523 3 20V4C3 3.44772 3.44772 3 4 3H20ZM21.7782 7.80761L23.1924 9.22183L15.4142 17L13.9979 16.9979L14 15.5858L21.7782 7.80761ZM15.5 7C16.3284 7 17 7.67157 17 8.5C17 9.32843 16.3284 10 15.5 10C14.6716 10 14 9.32843 14 8.5C14 7.67157 14.6716 7 15.5 7Z" fill="currentColor"></path></symbol><symbol viewBox="0 0 24 24" id="video-line"><path d="M3 3.9934C3 3.44476 3.44495 3 3.9934 3H20.0066C20.5552 3 21 3.44495 21 3.9934V20.0066C21 20.5552 20.5551 21 20.0066 21H3.9934C3.44476 21 3 20.5551 3 20.0066V3.9934ZM5 5V19H19V5H5ZM10.6219 8.41459L15.5008 11.6672C15.6846 11.7897 15.7343 12.0381 15.6117 12.2219C15.5824 12.2658 15.5447 12.3035 15.5008 12.3328L10.6219 15.5854C10.4381 15.708 10.1897 15.6583 10.0672 15.4745C10.0234 15.4088 10 15.3316 10 15.2526V8.74741C10 8.52649 10.1791 8.34741 10.4 8.34741C10.479 8.34741 10.5562 8.37078 10.6219 8.41459Z" fill="currentColor"></path></symbol><symbol viewBox="0 0 24 24" id="video-fill"><path d="M3 3.9934C3 3.44476 3.44495 3 3.9934 3H20.0066C20.5552 3 21 3.44495 21 3.9934V20.0066C21 20.5552 20.5551 21 20.0066 21H3.9934C3.44476 21 3 20.5551 3 20.0066V3.9934ZM10.6219 8.41459C10.5562 8.37078 10.479 8.34741 10.4 8.34741C10.1791 8.34741 10 8.52649 10 8.74741V15.2526C10 15.3316 10.0234 15.4088 10.0672 15.4745C10.1897 15.6583 10.4381 15.708 10.6219 15.5854L15.5008 12.3328C15.5447 12.3035 15.5824 12.2658 15.6117 12.2219C15.7343 12.0381 15.6846 11.7897 15.5008 11.6672L10.6219 8.41459Z" fill="currentColor"></path></symbol><symbol viewBox="0 0 24 24" id="menu-line"><path d="M3 4H21V6H3V4ZM3 11H21V13H3V11ZM3 18H21V20H3V18Z" fill="currentColor"></path></symbol><symbol viewBox="0 0 24 24" id="menu-add-line"><path d="M18 15L17.999 18H21V20H17.999L18 23H16L15.999 20H13V18H15.999L16 15H18ZM11 18V20H3V18H11ZM21 11V13H3V11H21ZM21 4V6H3V4H21Z" fill="currentColor"></path></symbol><symbol viewBox="0 0 24 24" id="star-line"><path d="M12.0006 18.26L4.94715 22.2082L6.52248 14.2799L0.587891 8.7918L8.61493 7.84006L12.0006 0.5L15.3862 7.84006L23.4132 8.7918L17.4787 14.2799L19.054 22.2082L12.0006 18.26ZM12.0006 15.968L16.2473 18.3451L15.2988 13.5717L18.8719 10.2674L14.039 9.69434L12.0006 5.27502L9.96214 9.69434L5.12921 10.2674L8.70231 13.5717L7.75383 18.3451L12.0006 15.968Z" fill="currentColor"></path></symbol><symbol viewBox="0 0 24 24" id="star-fill"><path d="M12.0006 18.26L4.94715 22.2082L6.52248 14.2799L0.587891 8.7918L8.61493 7.84006L12.0006 0.5L15.3862 7.84006L23.4132 8.7918L17.4787 14.2799L19.054 22.2082L12.0006 18.26Z" fill="currentColor"></path></symbol><symbol viewBox="0 0 24 24" id="more-2-fill"><path d="M12 3C10.9 3 10 3.9 10 5C10 6.1 10.9 7 12 7C13.1 7 14 6.1 14 5C14 3.9 13.1 3 12 3ZM12 17C10.9 17 10 17.9 10 19C10 20.1 10.9 21 12 21C13.1 21 14 20.1 14 19C14 17.9 13.1 17 12 17ZM12 10C10.9 10 10 10.9 10 12C10 13.1 10.9 14 12 14C13.1 14 14 13.1 14 12C14 10.9 13.1 10 12 10Z" fill="currentColor"></path></symbol><symbol viewBox="0 0 24 24" id="more-fill"><path d="M5 10C3.9 10 3 10.9 3 12C3 13.1 3.9 14 5 14C6.1 14 7 13.1 7 12C7 10.9 6.1 10 5 10ZM19 10C17.9 10 17 10.9 17 12C17 13.1 17.9 14 19 14C20.1 14 21 13.1 21 12C21 10.9 20.1 10 19 10ZM12 10C10.9 10 10 10.9 10 12C10 13.1 10.9 14 12 14C13.1 14 14 13.1 14 12C14 10.9 13.1 10 12 10Z" fill="currentColor"></path></symbol><symbol viewBox="0 0 24 24" id="settings-5-fill"><path d="M2.13127 13.6308C1.9492 12.5349 1.95521 11.434 2.13216 10.3695C3.23337 10.3963 4.22374 9.86798 4.60865 8.93871C4.99357 8.00944 4.66685 6.93557 3.86926 6.17581C4.49685 5.29798 5.27105 4.51528 6.17471 3.86911C6.9345 4.66716 8.0087 4.99416 8.93822 4.60914C9.86774 4.22412 10.3961 3.23332 10.369 2.13176C11.4649 1.94969 12.5658 1.9557 13.6303 2.13265C13.6036 3.23385 14.1319 4.22422 15.0612 4.60914C15.9904 4.99406 17.0643 4.66733 17.8241 3.86975C18.7019 4.49734 19.4846 5.27153 20.1308 6.1752C19.3327 6.93499 19.0057 8.00919 19.3907 8.93871C19.7757 9.86823 20.7665 10.3966 21.8681 10.3695C22.0502 11.4654 22.0442 12.5663 21.8672 13.6308C20.766 13.6041 19.7756 14.1324 19.3907 15.0616C19.0058 15.9909 19.3325 17.0648 20.1301 17.8245C19.5025 18.7024 18.7283 19.4851 17.8247 20.1312C17.0649 19.3332 15.9907 19.0062 15.0612 19.3912C14.1316 19.7762 13.6033 20.767 13.6303 21.8686C12.5344 22.0507 11.4335 22.0447 10.3691 21.8677C10.3958 20.7665 9.86749 19.7761 8.93822 19.3912C8.00895 19.0063 6.93508 19.333 6.17532 20.1306C5.29749 19.503 4.51479 18.7288 3.86862 17.8252C4.66667 17.0654 4.99367 15.9912 4.60865 15.0616C4.22363 14.1321 3.23284 13.6038 2.13127 13.6308ZM11.9997 15.0002C13.6565 15.0002 14.9997 13.657 14.9997 12.0002C14.9997 10.3433 13.6565 9.00018 11.9997 9.00018C10.3428 9.00018 8.99969 10.3433 8.99969 12.0002C8.99969 13.657 10.3428 15.0002 11.9997 15.0002Z" fill="currentColor"></path></symbol><symbol viewBox="0 0 24 24" id="download-line"><path d="M3 19H21V21H3V19ZM13 13.1716L19.0711 7.1005L20.4853 8.51472L12 17L3.51472 8.51472L4.92893 7.1005L11 13.1716V2H13V13.1716Z" fill="currentColor"></path></symbol><symbol viewBox="0 0 24 24" id="upload-line"><path d="M3 19H21V21H3V19ZM13 5.82843V17H11V5.82843L4.92893 11.8995L3.51472 10.4853L12 2L20.4853 10.4853L19.0711 11.8995L13 5.82843Z" fill="currentColor"></path></symbol><symbol viewBox="0 0 24 24" id="check-line"><path d="M9.9997 15.1709L19.1921 5.97852L20.6063 7.39273L9.9997 17.9993L3.63574 11.6354L5.04996 10.2212L9.9997 15.1709Z" fill="currentColor"></path></symbol><symbol viewBox="0 0 24 24" id="function-fill"><path d="M3 3H11V11H3V3ZM3 13H11V21H3V13ZM13 3H21V11H13V3ZM13 13H21V21H13V13Z" fill="currentColor"></path></symbol><symbol viewBox="0 0 24 24" id="list-settings-line"><path d="M2 18H9V20H2V18ZM2 11H11V13H2V11ZM2 4H22V6H2V4ZM20.674 13.0251L21.8301 12.634L22.8301 14.366L21.914 15.1711C21.9704 15.4386 22 15.7158 22 16C22 16.2842 21.9704 16.5614 21.914 16.8289L22.8301 17.634L21.8301 19.366L20.674 18.9749C20.2635 19.3441 19.7763 19.6295 19.2391 19.8044L19 21H17L16.7609 19.8044C16.2237 19.6295 15.7365 19.3441 15.326 18.9749L14.1699 19.366L13.1699 17.634L14.086 16.8289C14.0296 16.5614 14 16.2842 14 16C14 15.7158 14.0296 15.4386 14.086 15.1711L13.1699 14.366L14.1699 12.634L15.326 13.0251C15.7365 12.6559 16.2237 12.3705 16.7609 12.1956L17 11H19L19.2391 12.1956C19.7763 12.3705 20.2635 12.6559 20.674 13.0251ZM18 18C19.1046 18 20 17.1046 20 16C20 14.8954 19.1046 14 18 14C16.8954 14 16 14.8954 16 16C16 17.1046 16.8954 18 18 18Z" fill="currentColor"></path></symbol><symbol viewBox="0 0 24 24" id="information-line"><path d="M12 22C6.47715 22 2 17.5228 2 12C2 6.47715 6.47715 2 12 2C17.5228 2 22 6.47715 22 12C22 17.5228 17.5228 22 12 22ZM12 20C16.4183 20 20 16.4183 20 12C20 7.58172 16.4183 4 12 4C7.58172 4 4 7.58172 4 12C4 16.4183 7.58172 20 12 20ZM11 7H13V9H11V7ZM11 11H13V17H11V11Z" fill="currentColor"></path></symbol><symbol viewBox="0 0 24 24" id="information-fill"><path d="M12 22C6.47715 22 2 17.5228 2 12C2 6.47715 6.47715 2 12 2C17.5228 2 22 6.47715 22 12C22 17.5228 17.5228 22 12 22ZM11 11V17H13V11H11ZM11 7V9H13V7H11Z" fill="currentColor"></path></symbol><symbol viewBox="0 0 24 24" id="list-settings-fill"><path d="M2 18H9V20H2V18ZM2 11H11V13H2V11ZM2 4H22V6H2V4ZM20.674 13.0251L21.8301 12.634L22.8301 14.366L21.914 15.1711C21.9704 15.4386 22 15.7158 22 16C22 16.2842 21.9704 16.5614 21.914 16.8289L22.8301 17.634L21.8301 19.366L20.674 18.9749C20.2635 19.3441 19.7763 19.6295 19.2391 19.8044L19 21H17L16.7609 19.8044C16.2237 19.6295 15.7365 19.3441 15.326 18.9749L14.1699 19.366L13.1699 17.634L14.086 16.8289C14.0296 16.5614 14 16.2842 14 16C14 15.7158 14.0296 15.4386 14.086 15.1711L13.1699 14.366L14.1699 12.634L15.326 13.0251C15.7365 12.6559 16.2237 12.3705 16.7609 12.1956L17 11H19L19.2391 12.1956C19.7763 12.3705 20.2635 12.6559 20.674 13.0251ZM18 17C18.5523 17 19 16.5523 19 16C19 15.4477 18.5523 15 18 15C17.4477 15 17 15.4477 17 16C17 16.5523 17.4477 17 18 17Z" fill="currentColor"></path></symbol></svg>